
<svg width="113.4" height="68.4" viewBox="0 0 700 500" xmlns="http://www.w3.org/2000/svg">
  <style>
        #G,#S{
        fill: black;
        fill: light-dark(black,beige);
        stroke:black;
        stroke: light-dark(black,beige);
        stroke-width:0.25mm;
      }
      @media (prefers-color-scheme: dark) {
        #G,#S{
          fill: beige;
          stroke:beige;
          stroke-width:0.25mm;
        }
      }
    </style>
    	<path vector-effect="non-scaling-stroke" id="G" d="M 201.7 251.6 L 201.7 229.7 L 393.8 229.7 L 393.8 248.2 Q 393.8 286.6 379.9 321.1 Q 365.4 355.6 340.4 382.1 Q 315.4 408.4 281.8 423.4 C 259.8 433 236.1 438.1 212.1 438.3 C 211 438.3 209.8 438.3 208.6 438.3 C 189.3 438.5 170.1 435.6 151.7 429.7 C 146 427.7 140.4 425.4 134.9 422.8 Q 100.7 407.3 75.7 379.7 Q 50.1 352.8 36.2 317.1 Q 22.3 281.5 22.3 241.2 Q 22.3 202.2 36.2 166.6 Q 50.1 130.9 75.7 104 Q 100.7 76.4 134.9 60.9 C 155.7 51.4 178.2 46.1 201 45.4 C 203.6 45.3 206.1 45.3 208.6 45.4 Q 231.8 45.4 252.2 50.6 Q 273.1 55.7 291.7 65.5 Q 309.6 75.3 325.4 87.9 Q 340.4 101.1 352.6 117.2 L 333.4 130.9 Q 312.6 102.9 280 85.6 C 261.1 75.9 240.4 70.4 219 69.5 C 215.6 69.2 212.1 69 208.6 68.9 C 193.1 68.8 177.7 70.9 162.8 75.3 C 156.4 77.3 150.2 79.8 144.1 82.7 Q 114.6 95.9 92.5 120.1 Q 71 143.6 58.8 175.2 Q 47.2 206.8 47.2 241.2 Q 47.2 276.9 58.8 307.9 Q 71 338.9 92.5 363.6 Q 114.6 387.2 144.1 401 Q 173.8 414.7 208.6 414.7 C 224.2 414.9 239.6 412.8 254.5 408.4 C 260.2 406.7 265.8 404.5 271.3 402.1 Q 300.4 389.5 321.3 366.5 Q 342.8 344.1 354.9 314.8 Q 367.7 284.9 368.8 251.6 L 201.7 251.6 Z">
        </path>
    <path vector-effect="non-scaling-stroke" id="S" d="M 640.7 77.3 L 627.6 96.4 C 626.6 95.9 626 95.4 624.9 94.8 Q 622.2 92 617.8 89.3 C 616.2 88.2 615.1 87.1 613.5 86 Q 605.8 81.1 594.3 76.1 C 591.6 75.1 589.4 74.5 586.7 73.4 C 581.2 71.7 575.8 70.7 570.3 69.5 Q 559.4 67.3 546.9 67.3 C 539.2 67.3 531.6 68.5 523.9 69.5 Q 511.9 71.2 502.1 75.6 C 497.2 77.8 492.9 80.5 488.5 83.8 C 476.5 92.6 468.4 106.3 467.3 121.1 C 467.3 123.3 467.3 125.5 467.3 127.7 Q 467.3 146.4 478.2 160.7 Q 489.1 174.9 508.1 185.9 C 508.1 186.4 508.7 186.4 508.7 186.4 C 516.3 191.4 524.5 195.8 532.7 199.6 C 538.7 202.9 545.2 206.2 551.2 208.9 Q 568.7 217.2 587.3 227.1 Q 605.8 237.5 621.6 251.2 Q 637.5 264.9 646.7 283 Q 656.5 300.6 656.5 324.7 Q 656.5 345.6 648.4 363.1 Q 640.2 380.2 624.4 393.4 C 616.7 399.9 608 405.4 598.7 409.3 C 594.9 410.9 591.6 412.5 587.8 413.7 C 578.5 416.9 568.7 418.6 558.9 419.6 C 552.9 420.3 546.3 420.8 540.3 420.8 C 529.9 420.8 519.6 420.3 509.2 418.6 C 501.1 417.5 492.9 415.9 485.3 413.1 C 479.8 411.5 473.8 409.3 468.4 407.1 Q 460.7 404.3 454.7 401 C 451.4 399.9 448.7 398.3 445.4 396.6 C 444.3 396.1 442.7 395.6 441.6 394.4 Q 430.2 387.8 429.1 386.2 L 443.3 365.9 C 443.8 366.5 444.9 367 445.4 367.5 Q 448.7 369.7 455.3 374.1 Q 461.3 378 470 382.4 C 471.6 383.4 473.8 384.6 475.5 385.1 C 479.8 387.3 484.7 389 489.1 390 Q 496.2 392.8 504.3 394.4 C 510.9 396.1 517.4 397.1 523.9 397.8 C 529.9 398.3 535.4 398.3 541.4 398.3 C 550.1 398.3 558.3 397.8 567.1 396.1 Q 593.3 391.7 609.1 376.8 C 623.3 364.3 631.5 346.2 632 326.9 C 632 325.9 632.6 324.7 632.6 323.7 C 632.6 315.9 631.5 308.3 628.7 301.2 C 626 294 622.2 286.9 617.3 280.8 C 610.2 272.6 602.5 265.5 593.8 258.9 C 589.4 255.6 584.5 252.3 579.6 249.6 Q 557.2 236.4 533.2 224.9 Q 508.1 212.2 487.4 199.1 C 480.4 194.7 473.8 189.2 467.8 183.1 C 462.9 178.8 458.5 173.8 454.7 168.3 C 448.2 159.6 444.3 148.6 443.3 137.6 C 442.7 134.3 442.7 130.5 442.7 126.6 Q 442.7 103.6 456.4 84.9 C 463.4 75.6 472.7 67.3 483.1 61.3 C 486.4 59.7 489.6 57.5 492.9 55.8 C 503.8 50.9 515.8 48.2 527.8 46.5 C 533.8 46 539.8 45.4 545.8 45.4 C 552.9 45.4 560 46 567.1 46.5 Q 582.9 48.2 595.4 52.6 C 599.3 54.2 603.6 55.3 607.4 56.9 Q 613.5 59.1 618.4 61.9 C 621.6 63.5 624.9 65.7 627.6 67.3 C 628.7 68.5 630.4 69 631.5 70.1 Q 639.1 75.1 640.7 77.3 L 640.7 77.3 Z"/>
     </svg>