
<svg width="113.4" height="68.4" viewBox="0 0 500 500" xmlns="http://www.w3.org/2000/svg">
  <style>
        #G,#S{
        fill: black;
        fill: light-dark(black,beige);
        stroke:black;
        stroke: light-dark(black,beige);
        stroke-width:0.25mm;
      }
      @media (prefers-color-scheme: dark) {
        #G,#S{
          fill: beige;
          stroke:beige;
          stroke-width:0.25mm;
        }
      }
    </style>
    	<path vector-effect="non-scaling-stroke" id="G" d="M 64.6 264.5 L 64.6 237.5 L 300.6 237.5 L 300.6 260.3 Q 300.6 307.8 283.5 350.4 Q 265.7 393 235 425.7 Q 204.3 458.3 163 476.8 C 136 488.7 106.9 495 77.4 495.2 C 76 495.2 74.5 495.2 73.1 495.2 C 49.4 495.5 25.8 491.9 3.2 484.6 C -3.8 482.1 -10.7 479.3 -17.5 476.1 Q -59.5 456.9 -90.2 422.8 Q -121.6 389.5 -138.7 345.4 Q -155.8 301.4 -155.8 251.7 Q -155.8 203.5 -138.7 159.5 Q -121.6 115.4 -90.2 82.1 Q -59.5 48 -17.5 28.8 C 8.1 17.1 35.7 10.6 63.8 9.7 C 66.9 9.6 70 9.6 73.1 9.7 Q 101.6 9.7 126.6 16.1 Q 152.3 22.4 175.1 34.5 Q 197.2 46.6 216.5 62.2 Q 235 78.5 250 98.4 L 226.4 115.4 Q 200.8 80.7 160.8 59.4 C 137.6 47.4 112.1 40.6 85.9 39.5 C 81.7 39.1 77.4 38.9 73.1 38.8 C 54 38.6 35.1 41.2 16.8 46.6 C 9 49.1 1.3 52.2 -6.1 55.8 Q -42.4 72.1 -69.5 102 Q -95.9 131.1 -110.9 170.1 Q -125.2 209.1 -125.2 251.7 Q -125.2 295.8 -110.9 334.1 Q -95.9 372.4 -69.5 402.9 Q -42.4 432.1 -6.1 449.1 Q 30.3 466.1 73.1 466.1 C 92.2 466.3 111.2 463.7 129.5 458.3 C 136.5 456.2 143.4 453.5 150.1 450.5 Q 185.8 434.9 211.5 406.5 Q 237.9 378.8 252.8 342.6 Q 268.5 305.7 269.9 264.5 L 64.6 264.5 Z">
        </path>
    <path vector-effect="non-scaling-stroke" id="S" d="M 641.4 44.4 L 623.5 69.7 C 622.1 69 621.3 68.3 619.8 67.5 Q 616.1 63.9 610.1 60.3 C 607.9 58.8 606.4 57.4 604.2 55.9 Q 593.7 49.4 578 42.9 C 574.3 41.5 571.3 40.7 567.6 39.3 C 560.1 37.1 552.7 35.7 545.2 34.2 Q 530.3 31.3 513.2 31.3 C 502.7 31.3 492.3 32.8 481.8 34.2 Q 465.4 36.4 452 42.2 C 445.3 45.1 439.3 48.7 433.4 53 C 416.9 64.6 405.8 82.7 404.3 102.3 C 404.3 105.2 404.3 108.1 404.3 111 Q 404.3 135.6 419.2 154.5 Q 434.1 173.3 460.2 187.8 C 460.2 188.5 461 188.5 461 188.5 C 471.4 195 482.6 200.8 493.8 205.9 C 502 210.2 510.9 214.6 519.1 218.2 Q 543 229.1 568.4 242.1 Q 593.7 255.9 615.3 274 Q 637 292.1 649.7 316 Q 663.1 339.2 663.1 371 Q 663.1 398.6 651.9 421.7 Q 640.7 444.2 619.1 461.6 C 608.6 470.3 596.7 477.5 584 482.6 C 578.8 484.8 574.3 486.9 569.1 488.4 C 556.4 492.7 543 494.9 529.6 496.3 C 521.4 497.1 512.4 497.8 504.2 497.8 C 490 497.8 475.9 497.1 461.7 494.9 C 450.5 493.4 439.3 491.3 428.9 487.7 C 421.4 485.5 413.2 482.6 405.8 479.7 Q 395.3 476.1 387.1 471.7 C 382.6 470.3 378.9 468.1 374.4 465.9 C 372.9 465.2 370.7 464.5 369.2 463 Q 353.6 454.3 352.1 452.2 L 371.5 425.4 C 372.2 426.1 373.7 426.8 374.4 427.5 Q 378.9 430.4 387.9 436.2 Q 396.1 441.3 408 447.1 C 410.2 448.5 413.2 450 415.5 450.7 C 421.4 453.6 428.1 455.8 434.1 457.2 Q 443.8 460.9 455 463 C 463.9 465.2 472.9 466.6 481.8 467.4 C 490 468.1 497.5 468.1 505.7 468.1 C 517.6 468.1 528.8 467.4 540.8 465.2 Q 576.6 459.4 598.2 439.8 C 617.6 423.2 628.8 399.3 629.5 373.9 C 629.5 372.5 630.3 371 630.3 369.6 C 630.3 359.4 628.8 349.3 625 339.9 C 621.3 330.5 616.1 321.1 609.4 313.1 C 599.7 302.2 589.2 292.8 577.3 284.1 C 571.3 279.8 564.6 275.4 557.9 271.8 Q 527.3 254.4 494.5 239.2 Q 460.2 222.5 431.9 205.2 C 422.2 199.4 413.2 192.1 405 184.1 C 398.3 178.4 392.3 171.8 387.1 164.6 C 378.2 153 372.9 138.5 371.5 124 C 370.7 119.7 370.7 114.6 370.7 109.5 Q 370.7 79.1 389.4 54.5 C 399 42.2 411.7 31.3 425.9 23.3 C 430.4 21.2 434.8 18.3 439.3 16.1 C 454.2 9.6 470.6 6 487.1 3.8 C 495.3 3.1 503.5 2.3 511.7 2.3 C 521.4 2.3 531.1 3.1 540.8 3.8 Q 562.4 6 579.5 11.8 C 584.8 13.9 590.7 15.4 595.9 17.5 Q 604.2 20.4 610.9 24.1 C 615.3 26.2 619.8 29.1 623.5 31.3 C 625 32.8 627.3 33.5 628.8 34.9 Q 639.2 41.5 641.4 44.4 L 641.4 44.4 Z"/>
     </svg>