<svg xmlns="http://www.w3.org/2000/svg" version="1.1" xmlns:xlink="http://www.w3.org/1999/xlink" xmlns:svgjs="http://svgjs.com/svgjs" width="113.401" height="68.401"><svg width="113.401" height="68.401" viewBox="0 0 113.401 68.401" xmlns="http://www.w3.org/2000/svg">
  <g id="SvgjsG1002" stroke-linecap="round" fill-rule="nonzero" font-size="9pt" stroke="#000000" stroke-width="0.25mm">
    <path d="M 30.901 35.9 L 30.901 32.1 L 64.001 32.1 L 64.001 35.3 Q 64.001 42.05 61.551 48.05 Q 59.101 54.05 54.776 58.625 Q 50.451 63.2 44.651 65.8 A 30.167 30.167 0 0 1 32.731 68.394 A 34.708 34.708 0 0 1 32.101 68.4 A 30.578 30.578 0 0 1 22.341 66.867 A 28.42 28.42 0 0 1 19.351 65.675 Q 13.501 62.95 9.151 58.2 Q 4.801 53.45 2.401 47.275 Q 0.001 41.1 0.001 34.15 Q 0.001 27.25 2.401 21.075 Q 4.801 14.9 9.151 10.15 Q 13.501 5.4 19.351 2.7 A 29.714 29.714 0 0 1 30.816 0.024 A 34.538 34.538 0 0 1 32.101 0 Q 36.051 0 39.626 0.9 Q 43.201 1.8 46.351 3.475 Q 49.501 5.15 52.151 7.425 Q 54.801 9.7 56.901 12.5 L 53.601 14.9 Q 49.951 10 44.426 7.05 A 25.263 25.263 0 0 0 33.884 4.152 A 30.237 30.237 0 0 0 32.101 4.1 A 26.916 26.916 0 0 0 24.243 5.223 A 24.453 24.453 0 0 0 20.976 6.475 Q 15.901 8.85 12.126 13 Q 8.351 17.15 6.301 22.6 Q 4.251 28.05 4.251 34.15 Q 4.251 40.25 6.301 45.7 Q 8.351 51.15 12.126 55.35 Q 15.901 59.55 20.976 61.925 Q 26.051 64.3 32.101 64.3 A 26.897 26.897 0 0 0 40.045 63.151 A 24.553 24.553 0 0 0 42.901 62.075 Q 47.851 59.85 51.526 55.925 Q 55.201 52 57.326 46.85 Q 59.451 41.7 59.651 35.9 L 30.901 35.9 Z" id="SvgjsPath1001" vector-effect="non-scaling-stroke"></path><path d="M 110.501 5.8 L 108.051 9.35 A 9.022 9.022 0 0 0 107.607 8.966 Q 107.09 8.544 106.295 7.982 A 50.479 50.479 0 0 0 105.451 7.4 Q 104.052 6.455 101.983 5.625 A 31.628 31.628 0 0 0 100.576 5.1 A 17.646 17.646 0 0 0 97.583 4.364 Q 95.625 4.05 93.301 4.05 A 25.983 25.983 0 0 0 89.123 4.365 Q 86.9 4.728 85.098 5.508 A 12.521 12.521 0 0 0 82.551 6.975 A 9.314 9.314 0 0 0 78.712 13.759 A 12.35 12.35 0 0 0 78.651 15 Q 78.651 18.45 80.701 21.025 Q 82.736 23.581 86.199 25.645 A 28.194 28.194 0 0 0 86.251 25.675 A 80.635 80.635 0 0 0 90.689 28.113 A 101.389 101.389 0 0 0 94.051 29.75 Q 97.301 31.25 100.701 33.1 Q 104.101 34.95 106.976 37.45 Q 109.851 39.95 111.626 43.25 Q 113.401 46.55 113.401 50.9 Q 113.401 54.7 111.876 57.875 Q 110.351 61.05 107.526 63.425 A 19.333 19.333 0 0 1 102.783 66.334 A 23.44 23.44 0 0 1 100.776 67.1 A 25.41 25.41 0 0 1 95.528 68.217 A 32.082 32.082 0 0 1 92.051 68.4 A 36.862 36.862 0 0 1 86.443 67.991 A 29.148 29.148 0 0 1 81.976 66.95 A 59.254 59.254 0 0 1 78.949 65.895 Q 77.545 65.36 76.369 64.811 A 26.005 26.005 0 0 1 74.676 63.95 A 176.363 176.363 0 0 1 74.021 63.583 Q 71.869 62.369 71.651 62.15 L 74.301 58.4 A 14.261 14.261 0 0 0 74.679 58.68 Q 75.326 59.144 76.451 59.875 Q 77.599 60.622 79.202 61.397 A 41.134 41.134 0 0 0 80.226 61.875 A 24.321 24.321 0 0 0 82.688 62.819 Q 84.013 63.25 85.526 63.6 A 26.622 26.622 0 0 0 89.142 64.166 A 34.716 34.716 0 0 0 92.251 64.3 A 27.719 27.719 0 0 0 96.99 63.922 Q 101.779 63.089 104.701 60.425 A 12.534 12.534 0 0 0 108.938 51.334 A 15.673 15.673 0 0 0 108.951 50.7 A 12.919 12.919 0 0 0 108.311 46.567 A 11.189 11.189 0 0 0 106.226 42.875 A 24.346 24.346 0 0 0 101.909 38.903 A 30.187 30.187 0 0 0 99.326 37.225 Q 95.151 34.8 90.751 32.7 Q 86.151 30.45 82.401 28.025 A 23.555 23.555 0 0 1 78.755 25.149 A 19.036 19.036 0 0 1 76.426 22.425 A 12.244 12.244 0 0 1 74.323 16.845 A 15.855 15.855 0 0 1 74.201 14.85 Q 74.201 10.6 76.676 7.225 A 15.939 15.939 0 0 1 81.581 2.872 A 19.84 19.84 0 0 1 83.426 1.925 A 21.774 21.774 0 0 1 89.812 0.188 A 27.179 27.179 0 0 1 93.051 0 A 38.159 38.159 0 0 1 97.018 0.195 Q 99.915 0.498 102.201 1.275 A 39.351 39.351 0 0 1 104.386 2.087 Q 105.5 2.541 106.423 3.013 A 16.33 16.33 0 0 1 108.076 3.975 A 62.353 62.353 0 0 1 108.808 4.474 Q 110.177 5.42 110.47 5.762 A 0.757 0.757 0 0 1 110.501 5.8 Z" id="SvgjsPath1000" vector-effect="non-scaling-stroke"></path>
    </g>
    	<style>
      #favicon{
        fill: black;
        stroke:black;
        stroke-width:0.25mm;
      }
      @media (prefers-color-scheme: dark) {
        #favicon{
          fill: beige;
          stroke:beige;
          stroke-width:0.25mm;
        }
      }
  </style>
     </svg><style>@media (prefers-color-scheme: light) { :root { filter: none; } }
</style></svg>